<svg xmlns="http://www.w3.org/2000/svg" width="21.75" height="17.88"><path d="M21.76 2.13a8.84 8.84 0 01-2.56.71 4.5 4.5 0 001.96-2.5 9.072 9.072 0 01-2.84 1.1A4.416 4.416 0 0015.06.01a4.488 4.488 0 00-4.46 4.51 4.337 4.337 0 00.12 1.03A12.664 12.664 0 011.51.84 4.55 4.55 0 002.9 6.86 4.406 4.406 0 01.87 6.3v.05a4.5 4.5 0 003.59 4.43 4.2 4.2 0 01-1.18.16 4.6 4.6 0 01-.84-.08 4.462 4.462 0 004.17 3.13 8.921 8.921 0 01-5.55 1.93A9.284 9.284 0 010 15.86a12.546 12.546 0 006.84 2.03c8.22 0 12.7-6.88 12.7-12.84 0-.2 0-.39-.01-.59a9.154 9.154 0 002.23-2.33" fill="#cfd2d6" fill-rule="evenodd"/></svg>