<svg xmlns="http://www.w3.org/2000/svg" width="21.75" height="18.82"><path d="M15.32 1.98v4.19a1.593 1.593 0 01-.34.3.638.638 0 01-.32.12.245.245 0 01-.21-.09.376.376 0 01-.08-.28V1.98h-1.12v4.61a1.2 1.2 0 00.2.75.712.712 0 00.58.24 1.38 1.38 0 00.66-.17 2.409 2.409 0 00.63-.52v.61h1.12V1.98h-1.12zm-3.41.27a1.6 1.6 0 00-1.14-.41 1.892 1.892 0 00-1.22.38 1.3 1.3 0 00-.45 1.02v2.87a1.521 1.521 0 00.44 1.12 1.7 1.7 0 001.18.42 1.669 1.669 0 001.19-.41 1.411 1.411 0 00.44-1.11V3.28a1.33 1.33 0 00-.44-1.03zm-.7 3.97a.452.452 0 01-.13.34.484.484 0 01-.36.13.411.411 0 01-.34-.13.476.476 0 01-.13-.34V3.2a.356.356 0 01.14-.29.427.427 0 01.33-.11.552.552 0 01.36.11.347.347 0 01.13.29v3.02zM7.74.02l-.77 2.99h-.09L6.07.02H4.79L6.3 4.54V7.5h1.26V4.4L9.02.02H7.74zm8.72 13.18a.769.769 0 01.1.45v.5h-.87v-.5a.769.769 0 01.1-.45.4.4 0 01.34-.14.37.37 0 01.33.14zm-3.44-.02a.374.374 0 00-.31-.13.556.556 0 00-.21.04.7.7 0 00-.2.16v3.12a.659.659 0 00.24.18.6.6 0 00.23.06.293.293 0 00.27-.12.478.478 0 00.09-.34v-2.59a.54.54 0 00-.11-.38zm0 0a.374.374 0 00-.31-.13.556.556 0 00-.21.04.7.7 0 00-.2.16v3.12a.659.659 0 00.24.18.6.6 0 00.23.06.293.293 0 00.27-.12.478.478 0 00.09-.34v-2.59a.54.54 0 00-.11-.38zm5.63-3.87H3.09a3.139 3.139 0 00-3.1 3.15v3.21a3.128 3.128 0 003.1 3.13h15.56a3.128 3.128 0 003.1-3.13v-3.21a3.139 3.139 0 00-3.1-3.15zM7.28 11.52H6.12v5.81H5v-5.81H3.85v-.99h3.43v.99zm3.27 5.81h-1v-.56a1.766 1.766 0 01-.57.47 1.137 1.137 0 01-.57.17.606.606 0 01-.52-.24 1.065 1.065 0 01-.17-.66V12.3h.99v3.86a.476.476 0 00.06.26.244.244 0 00.2.07.53.53 0 00.28-.1.972.972 0 00.3-.27V12.3h1v5.03zm3.6-1.05a1.323 1.323 0 01-.23.83.859.859 0 01-.68.28 1.1 1.1 0 01-.52-.11 1.463 1.463 0 01-.42-.34v.39h-1v-6.8h1v2.18a1.653 1.653 0 01.42-.34 1.018 1.018 0 01.46-.12.877.877 0 01.72.32 1.516 1.516 0 01.25.93v2.78zm3.44-1.34h-1.9v.95a1.138 1.138 0 00.09.54.37.37 0 00.34.15.375.375 0 00.34-.13 1 1 0 00.1-.56v-.24h1.03v.26a1.587 1.587 0 01-.38 1.16 1.419 1.419 0 01-1.11.39 1.329 1.329 0 01-1.05-.41 1.638 1.638 0 01-.39-1.14v-2.25a1.446 1.446 0 01.43-1.07 1.545 1.545 0 011.09-.41 1.387 1.387 0 011.04.39 1.528 1.528 0 01.37 1.09v1.28zm-4.88-1.89a.556.556 0 00-.21.04.7.7 0 00-.2.16v3.12a.659.659 0 00.24.18.6.6 0 00.23.06.293.293 0 00.27-.12.478.478 0 00.09-.34v-2.59a.54.54 0 00-.11-.38.374.374 0 00-.31-.13zm.31.13a.374.374 0 00-.31-.13.556.556 0 00-.21.04.7.7 0 00-.2.16v3.12a.659.659 0 00.24.18.6.6 0 00.23.06.293.293 0 00.27-.12.478.478 0 00.09-.34v-2.59a.54.54 0 00-.11-.38zm0 0a.374.374 0 00-.31-.13.556.556 0 00-.21.04.7.7 0 00-.2.16v3.12a.659.659 0 00.24.18.6.6 0 00.23.06.293.293 0 00.27-.12.478.478 0 00.09-.34v-2.59a.54.54 0 00-.11-.38z" fill="#cfd2d6" fill-rule="evenodd"/></svg>