<svg xmlns="http://www.w3.org/2000/svg" width="21.75" height="18.96"><path d="M21.74 4.39q-.15 3.21-4.44 8.77-4.425 5.82-7.51 5.82-1.9 0-3.22-3.55c-.58-2.17-1.17-4.34-1.75-6.51q-.975-3.54-2.1-3.54a6.7 6.7 0 00-1.71 1.03L-.01 5.08q1.6-1.425 3.17-2.86C4.59.97 5.66.32 6.38.25q2.535-.255 3.12 3.5c.42 2.69.72 4.37.88 5.03.49 2.23 1.02 3.35 1.61 3.35.45 0 1.13-.72 2.05-2.17a8.614 8.614 0 001.46-3.3c.13-1.25-.36-1.87-1.46-1.87a4.16 4.16 0 00-1.61.34C13.5 1.61 15.55-.09 18.57.01q3.36.09 3.17 4.38z" fill="#cfd2d6" fill-rule="evenodd"/></svg>