<svg xmlns="http://www.w3.org/2000/svg" width="30" height="30"><path d="M11.1 12.75L18.3.3A24.528 24.528 0 0015 0a14.1 14.1 0 00-9.45 3.45l5.55 9.45v-.15zm18.15-2.25a14.5 14.5 0 00-9-9.45l-5.4 9.45h14.4zm.45 1.5H18.45l.45.75 7.2 12.45A15.382 15.382 0 0030 15a18.465 18.465 0 00-.3-3zM9.75 15L3.9 4.8A15.382 15.382 0 000 15a18.465 18.465 0 00.3 3h11.25zm-9 4.5a14.5 14.5 0 009 9.45l5.55-9.45H.75zm16.8 0L11.7 29.7a11.767 11.767 0 003.3.3 14.1 14.1 0 009.45-3.45L18.9 17.1zm0 0" fill="#27c5ff" fill-rule="evenodd"/></svg>